# xmcd
# 
# Track frame offsets:
#     150
#     25037
#     37017
#     48337
#     59440
#     69320
#     80960
#     91970
#     104580
#     116652
#     124812
#     135940
#     146297
#     158897
#     168962
#     183582
# 
# Disc length: 2704
# 
# Revision: 16
# Processed by: cddbd v1.5.2PL0 Copyright (c) Steve Scherf et al.
# Submitted via: fre:ac v1.0.27
# 
DISCID=db0a8e10
DTITLE=Various Artist - Country and Western CD3
DYEAR=1998
DGENRE=Country
TTITLE0=Dave Duddley - Lying Eyes
TTITLE1=Buddy Meredith - I Pledge Allegiance
TTITLE2=David Price - The Lonesome Truck Driver´s Walz
TTITLE3=Stonewall Jackson - Waterloo
TTITLE4=Ronnie Rogers - The Fool On The Stool
TTITLE5=Roger Miller - Walking In The Sunshine
TTITLE6=Patsy Cline - Stop The World (And Let Me Off)
TTITLE7=Lynn Anderson - It Must Be Love
TTITLE8=Ferlin Husky - Out Of A Clear Blue Sky
TTITLE9=Don Gibson - Blue Blue Day
TTITLE10=Conway Twitty - It's Only Make Belive
TTITLE11=Linda Manning - Bonjour Tristesse (Hello Sadness)
TTITLE12=Bobby Lord - Looking For A Cold Lonely Winter
TTITLE13=Bobby Bare - Help Me Make It Trought The Night
TTITLE14=John Denver - Take Me Home Country Roads
TTITLE15=Wille Nelson and Don Cherry - My Way
EXTD=
EXTT0=
EXTT1=
EXTT2=
EXTT3=
EXTT4=
EXTT5=
EXTT6=
EXTT7=
EXTT8=
EXTT9=
EXTT10=
EXTT11=
EXTT12=
EXTT13=
EXTT14=
EXTT15=
PLAYORDER=
